# xmcd
#
# Track frame offsets:
#	150
#	12282
#	23302
#	33322
#	46695
#	57547
#	66287
#	78082
#	91112
#	103210
#	113865
#	126367
#	137472
#	151382
#
# Disc length: 2164 seconds
#
# Revision: 1
# Processed by: cddbd v1.5.1PL2 Copyright (c) Steve Scherf et al.
# Submitted via: audiograbber 1.83.01
#
DISCID=a708720e
DTITLE=VÁRIOS - ISTO É QUE É FORRÓ - VOL. 3
DYEAR=1900
DGENRE=
TTITLE0=ZÉ CUPIDO - FORRÓ NO ESCURO
TTITLE1=ZÉ CUPIDO - O XOTE DAS MENINAS
TTITLE2=ZÉ CUPIDO - BAIÃO
TTITLE3=SEVERINO JANUÁRIO-JOÃO SILVA - ASA BRANCA
TTITLE4=SEVERINO JANUÁRIO-JOÃO SILVA - A DANÇA DA MODA
TTITLE5=ZÉ CUPIDO - LOROTA BOA
TTITLE6=SEVERINO JANUÁRIO-JOÃO SILVA - JUAZEIRO
TTITLE7=SEVERINO JANUÁRIO-JOÃO SILVA - SEU JANUÁRIO
TTITLE8=SEVERINO JANUÁRIO-JOÃO SILVA - FOGUEIRA DE SÃO JOÃO
TTITLE9=ZÉ CUPIDO - BAIÃO DE DOIS
TTITLE10=SEVERINO JANUÁRIO-JOÃO SILVA - SIRIDÓ
TTITLE11=ZÉ CUPIDO - TOCA UMA POLQUINHA
TTITLE12=SEVERINO JANUÁRIO-JOÃO SILVA - PROPRIÁ
TTITLE13=SEVERINO JANUÁRIO-JOÃO SILVA - CALANGO DA LACRÁIA
EXTD=
EXTT0=
EXTT1=
EXTT2=
EXTT3=
EXTT4=
EXTT5=
EXTT6=
EXTT7=
EXTT8=
EXTT9=
EXTT10=
EXTT11=
EXTT12=
EXTT13=
PLAYORDER=
